<svg xmlns="http://www.w3.org/2000/svg" xmlns:xlink="http://www.w3.org/1999/xlink" viewBox="0 0 643.07 180.33"><defs><style>.cls-1{fill:#0b2370;}.cls-2{fill:url(#Degradado_sin_nombre_2);}.cls-3{fill:url(#Degradado_sin_nombre_2-2);}.cls-4{fill:url(#Degradado_sin_nombre_2-3);}.cls-5{fill:url(#Degradado_sin_nombre_2-4);}</style><linearGradient id="Degradado_sin_nombre_2" x1="464" y1="178.73" x2="638.22" y2="4.01" gradientUnits="userSpaceOnUse"><stop offset="0" stop-color="#e55c1e"/><stop offset="0.37" stop-color="#e7651e"/><stop offset="1" stop-color="#f3a61c"/></linearGradient><linearGradient id="Degradado_sin_nombre_2-2" x1="429.52" y1="144.34" x2="603.73" y2="-30.37" xlink:href="#Degradado_sin_nombre_2"/><linearGradient id="Degradado_sin_nombre_2-3" x1="496.01" y1="210.64" x2="670.22" y2="35.93" xlink:href="#Degradado_sin_nombre_2"/><linearGradient id="Degradado_sin_nombre_2-4" x1="463.72" y1="178.45" x2="637.94" y2="3.73" xlink:href="#Degradado_sin_nombre_2"/></defs><g id="Capa_2" data-name="Capa 2"><g id="LOGO"><path class="cls-1" d="M55,116.88H44.25C41,110.58,30.9,90.74,27.52,84.12c-3.43,6.72-13.44,26.36-16.73,32.76H0c3-5.87,24-47.07,27.52-54C31.16,70.05,51.9,110.79,55,116.88Z"/><path class="cls-1" d="M113.7,63v9.63H91.58V117H81.94V72.63H59.82V63Z"/><path class="cls-1" d="M173.67,116.88H162.88c-3.24-6.3-13.35-26.14-16.73-32.76-3.43,6.72-13.44,26.36-16.73,32.76H118.63c3-5.87,24-47.07,27.52-54C149.79,70.05,170.53,110.79,173.67,116.88Z"/><path class="cls-1" d="M236.19,107.33V117c-54.39,3.41-43.42-9.3-44.48-54h9.63C204,108.32,188.37,108.28,236.19,107.33Z"/><path class="cls-1" d="M311.34,116.88H300.55c-3.24-6.3-13.35-26.14-16.73-32.76-3.43,6.72-13.44,26.36-16.73,32.76H256.3c3-5.87,24-47.07,27.52-54C287.46,70.05,308.2,110.79,311.34,116.88Z"/><polygon class="cls-1" points="370.46 62.84 349.57 89.9 348.42 91.37 348.42 116.81 338.78 116.81 338.78 91.52 337.47 89.9 316.58 62.84 328.76 62.84 343.56 82.04 358.36 62.84 370.46 62.84"/><path class="cls-1" d="M430.74,116.88H420c-3.24-6.3-13.35-26.14-16.73-32.76-3.43,6.72-13.44,26.36-16.73,32.76H375.7c3-5.87,24-47.07,27.52-54C406.86,70.05,427.6,110.79,430.74,116.88Z"/><path class="cls-1" d="M564.38,159.8C476.63,159.32,446.86,43.17,521.68,0c-55.11,20.3-73.62,100-31.79,142.64,41.36,48.54,126.51,33.06,148.69-25.74A85.56,85.56,0,0,1,564.38,159.8Z"/><path class="cls-2" d="M487.82,148.4l-25.26,31.93,31.81-25.62A48.4,48.4,0,0,1,487.82,148.4Z"/><path class="cls-3" d="M552.82,21.83l-22,2.75L484.91,85a89.1,89.1,0,0,0,4.46,15.56L549,42.74Z"/><path class="cls-4" d="M552.64,140.58,542,152.12c2.37.86,4.79,1.62,7.24,2.29L637.2,87.87,643.07,67l-25.31,2.75Z"/><path class="cls-5" d="M643.07,1.65,600.15,6.42c-5.82,7.33-92,116-95.24,120a85.76,85.76,0,0,0,11.22,10.92L637.2,39.69Z"/></g></g></svg>