<svg xmlns="http://www.w3.org/2000/svg" width="23.849" height="25.147" viewBox="0 0 23.849 25.147">
  <g id="Grupo_127" data-name="Grupo 127" transform="translate(-9.496 -9.707)">
    <path id="Trazado_324" data-name="Trazado 324" d="M286.474,402.955a.776.776,0,0,0-.756.921l3.233,16.874a.776.776,0,0,0,.768.63l13.065-.1a.776.776,0,0,0,.757-.636l3.083-16.923a.775.775,0,0,0-.769-.914Zm5.571,17.279a.769.769,0,0,1-.881-.638l-2.22-13.908a.77.77,0,0,1,1.52-.243l2.22,13.908A.77.77,0,0,1,292.045,420.234Zm4.256.055a.769.769,0,0,1-.776-.764l-.111-14.083a.77.77,0,0,1,1.54-.012l.11,14.084A.77.77,0,0,1,296.3,420.29Zm7.127-14.715-2,13.941a.77.77,0,0,1-1.524-.219l2-13.941a.77.77,0,0,1,1.524.219Z" transform="translate(-274.729 -386.526)" fill="#0b2370"/>
    <path id="Trazado_325" data-name="Trazado 325" d="M260.018,284.642l22.823-.178-.018-2.324-2.117.016-.009-1.222a.363.363,0,0,0-.365-.36l-4.67.037-1.46.011-5.74.045-1.46.011-4.354.034a.364.364,0,0,0-.359.365l.009,1.223-2.3.018Z" transform="translate(-250 -268.934)" fill="#0b2370"/>
    <path id="Trazado_325_-_Contorno" data-name="Trazado 325 - Contorno" d="M259.522,285.146l-.026-3.324,2.3-.018-.005-.723a.864.864,0,0,1,.855-.869l17.69-.138a.863.863,0,0,1,.863.851l.005.727,2.117-.016.026,3.324Zm.982-2.332.01,1.324,21.823-.17-.01-1.325-2.117.016-.012-1.585-17.409.136.012,1.585Z" transform="translate(-250 -268.934)" fill="rgba(0,0,0,0)"/>
    <path id="Trazado_323" data-name="Trazado 323" d="M451.472,231.6l1.46-.011-.01-1.245a.731.731,0,0,0-.736-.724l-7.2.056a.73.73,0,0,0-.724.736l.01,1.245,1.46-.011,0-.515,5.74-.045Z" transform="translate(-427.271 -219.912)" fill="#0b2370"/>
  </g>
</svg>
