<svg xmlns="http://www.w3.org/2000/svg" width="15" height="15" viewBox="0 0 15 15">
  <g id="Grupo_127" data-name="Grupo 127" transform="translate(-14.5 -14.5)">
    <path id="Línea_42" data-name="Línea 42" d="M13,14a1,1,0,0,1-.707-.293l-13-13a1,1,0,0,1,0-1.414,1,1,0,0,1,1.414,0l13,13A1,1,0,0,1,13,14Z" transform="translate(15.5 15.5)" fill="#0b2370"/>
    <path id="Línea_43" data-name="Línea 43" d="M13,14a1,1,0,0,1-.707-.293l-13-13a1,1,0,0,1,0-1.414,1,1,0,0,1,1.414,0l13,13A1,1,0,0,1,13,14Z" transform="translate(28.5 15.5) rotate(90)" fill="#0b2370"/>
  </g>
</svg>
