<svg xmlns="http://www.w3.org/2000/svg" width="40.982" height="40.982" viewBox="0 0 40.982 40.982">
  <g id="fb" transform="translate(0.5 0.5)">
    <path id="Trazado_56" data-name="Trazado 56" d="M-617.053,180.118l.886-5.778h-5.544v-3.75c0-1.581.774-3.122,3.258-3.122h2.521v-4.92a30.754,30.754,0,0,0-4.475-.39c-4.566,0-7.551,2.767-7.551,7.778v4.4h-5.076v5.778h5.076v13.556h6.247V180.118Z" transform="translate(644.964 -153.829)" fill="#fff"/>
    <path id="Trazado_55" data-name="Trazado 55" d="M-675.779,160.993V141.927a10.489,10.489,0,0,1,10.459-10.458h19.065A10.489,10.489,0,0,1-635.8,141.927v19.065a10.49,10.49,0,0,1-10.459,10.459H-665.32A10.489,10.489,0,0,1-675.779,160.993Z" transform="translate(675.779 -131.469)" fill="none" stroke="#fff" stroke-miterlimit="10" stroke-width="1"/>
  </g>
</svg>
