<svg xmlns="http://www.w3.org/2000/svg" width="40.982" height="40.982" viewBox="0 0 40.982 40.982" class="x-svg">
  <g id="ig" transform="translate(0.5 0.5)">
    <path id="Trazado_51" data-name="Trazado 51" d="M-503.852,164.706V145.64a10.489,10.489,0,0,1,10.459-10.458h19.065A10.489,10.489,0,0,1-463.87,145.64v19.065a10.49,10.49,0,0,1-10.459,10.458h-19.065A10.489,10.489,0,0,1-503.852,164.706Z" transform="translate(503.852 -135.182)" fill="none" stroke="#fff" stroke-miterlimit="10" stroke-width="1"/>
    <g id="Grupo_23" data-name="Grupo 23" transform="translate(8.409 8.133)">
      <g id="Grupo_22" data-name="Grupo 22" transform="translate(0 0)">
        <path id="Trazado_52" data-name="Trazado 52" d="M-412.5,180.336a1.374,1.374,0,0,0-1.374,1.374,1.374,1.374,0,0,0,1.374,1.374,1.374,1.374,0,0,0,1.374-1.374A1.374,1.374,0,0,0-412.5,180.336Z" transform="translate(430.422 -176.151)" fill="#fff"/>
        <path id="Trazado_53" data-name="Trazado 53" d="M-446.188,186.725a5.779,5.779,0,0,0-5.773,5.772,5.779,5.779,0,0,0,5.773,5.772,5.779,5.779,0,0,0,5.772-5.772A5.779,5.779,0,0,0-446.188,186.725Zm0,9.47a3.7,3.7,0,0,1-3.7-3.7,3.7,3.7,0,0,1,3.7-3.7,3.7,3.7,0,0,1,3.7,3.7A3.7,3.7,0,0,1-446.188,196.195Z" transform="translate(458.004 -180.777)" fill="#fff"/>
        <path id="Trazado_54" data-name="Trazado 54" d="M-457.469,188.6h-9.358a7.048,7.048,0,0,1-7.04-7.041v-9.359a7.048,7.048,0,0,1,7.04-7.041h9.358a7.049,7.049,0,0,1,7.041,7.041v9.359A7.049,7.049,0,0,1-457.469,188.6Zm-9.358-21.234a4.841,4.841,0,0,0-4.835,4.835v9.359a4.841,4.841,0,0,0,4.835,4.835h9.358a4.841,4.841,0,0,0,4.836-4.835v-9.359a4.841,4.841,0,0,0-4.836-4.835Z" transform="translate(473.868 -165.165)" fill="#fff"/>
      </g>
    </g>
  </g>
</svg>
