<svg xmlns="http://www.w3.org/2000/svg" xmlns:xlink="http://www.w3.org/1999/xlink" width="333.159" height="93.272" viewBox="0 0 333.159 93.272"><defs><style>.a{fill:#ddd;}.b{fill:url(#a);}.c{fill:url(#b);}.d{fill:url(#c);}.e{fill:url(#d);}</style><linearGradient id="a" x1="0.045" y1="0.95" x2="5.521" y2="-4.522" gradientUnits="objectBoundingBox"><stop offset="0" stop-color="#e55c1e"/><stop offset="0.372" stop-color="#e7651e"/><stop offset="1" stop-color="#f3a61c"/></linearGradient><linearGradient id="b" x1="-0.816" y1="1.557" x2="1.75" y2="-0.663" xlink:href="#a"/><linearGradient id="c" x1="-0.456" y1="1.643" x2="1.269" y2="-0.355" xlink:href="#a"/><linearGradient id="d" x1="-0.298" y1="1.303" x2="0.963" y2="0.015" xlink:href="#a"/></defs><g transform="translate(239.793)"><path class="a" d="M1431.891,356.4c-45.388-.251-60.786-60.324-22.085-82.654-28.506,10.5-38.077,51.742-16.443,73.78,21.392,25.106,65.433,17.1,76.908-13.314A44.257,44.257,0,0,1,1431.891,356.4Z" transform="translate(-1379.227 -273.749)"/><g transform="translate(0 0.854)"><path class="b" d="M1381.658,703.029l-13.066,16.516,16.456-13.252A24.631,24.631,0,0,1,1381.658,703.029Z" transform="translate(-1368.592 -627.127)"/><path class="c" d="M1468.365,336.9l-11.386,1.423-23.738,31.23a45.887,45.887,0,0,0,2.31,8.047l30.821-29.883Z" transform="translate(-1421.682 -326.464)"/><path class="d" d="M1603.992,505.523l-5.484,5.968q1.838.672,3.747,1.186l45.474-34.415,3.036-10.817-13.094,1.423Z" transform="translate(-1557.399 -433.667)"/><path class="e" d="M1562.575,278.528l-22.2,2.467-49.256,62.053a44.5,44.5,0,0,0,5.8,5.648l62.623-50.5Z" transform="translate(-1469.209 -278.528)"/></g></g><g transform="translate(0 32.505)"><path class="a" d="M57.7,483.677H52.118c-1.676-3.262-6.907-13.523-8.652-16.946-1.773,3.478-6.951,13.635-8.653,16.946H29.231c1.566-3.037,12.419-24.35,14.235-27.911C45.346,459.452,56.076,480.526,57.7,483.677Z" transform="translate(-29.231 -455.726)"/><path class="a" d="M230.134,455.99v4.984H218.691V483.9h-4.984V460.974H202.263V455.99Z" transform="translate(-171.325 -455.91)"/><path class="a" d="M400.866,483.677h-5.582c-1.676-3.262-6.907-13.523-8.653-16.946-1.773,3.478-6.951,13.635-8.652,16.946H372.4c1.566-3.037,12.419-24.35,14.234-27.911C388.511,459.452,399.242,480.526,400.866,483.677Z" transform="translate(-311.038 -455.726)"/><path class="a" d="M606.2,478.917V483.9c-28.132,1.764-22.456-4.811-23.007-27.911h4.984C589.531,479.429,581.464,479.412,606.2,478.917Z" transform="translate(-484.034 -455.91)"/><path class="a" d="M799.11,483.677h-5.582c-1.676-3.262-6.907-13.523-8.653-16.946-1.773,3.478-6.951,13.635-8.652,16.946h-5.582c1.566-3.037,12.419-24.35,14.234-27.911C786.755,459.452,797.486,480.526,799.11,483.677Z" transform="translate(-638.075 -455.726)"/><path class="a" d="M972.882,455.542l-10.806,14-.6.758v13.158h-4.984V470.375l-.678-.837-10.805-14h6.3l7.656,9.928,7.655-9.928Z" transform="translate(-781.267 -455.542)"/><path class="a" d="M1144.507,483.677h-5.582c-1.676-3.262-6.907-13.523-8.652-16.946-1.774,3.478-6.952,13.635-8.653,16.946h-5.582c1.566-3.037,12.419-24.351,14.235-27.911C1132.153,459.452,1142.883,480.526,1144.507,483.677Z" transform="translate(-921.714 -455.726)"/></g></svg>