<svg id="lupa" xmlns="http://www.w3.org/2000/svg" width="33.445" height="34.471" viewBox="0 0 33.445 34.471">
  <g id="Trazado_13" data-name="Trazado 13" fill="none">
    <path d="M13.337,0A13.337,13.337,0,1,1,0,13.337,13.337,13.337,0,0,1,13.337,0Z" stroke="none"/>
    <path d="M 13.3367395401001 3 C 7.637039184570312 3 3 7.637039184570312 3 13.3367395401001 C 3 19.03643989562988 7.637039184570312 23.6734790802002 13.3367395401001 23.6734790802002 C 19.03643989562988 23.6734790802002 23.6734790802002 19.03643989562988 23.6734790802002 13.3367395401001 C 23.6734790802002 7.637039184570312 19.03643989562988 3 13.3367395401001 3 M 13.3367395401001 0 C 20.70241928100586 0 26.6734790802002 5.971059799194336 26.6734790802002 13.3367395401001 C 26.6734790802002 20.70241928100586 20.70241928100586 26.6734790802002 13.3367395401001 26.6734790802002 C 5.971059799194336 26.6734790802002 0 20.70241928100586 0 13.3367395401001 C 0 5.971059799194336 5.971059799194336 0 13.3367395401001 0 Z" stroke="none" fill="#ddd"/>
  </g>
  <line id="Línea_7" data-name="Línea 7" x2="7.888" y2="8.194" transform="translate(22.73 23.449)" fill="none" stroke="#ddd" stroke-linecap="round" stroke-width="4"/>
</svg>
