<svg xmlns="http://www.w3.org/2000/svg" width="23" height="23" viewBox="0 0 23 23">
  <g id="Grupo_127" data-name="Grupo 127" transform="translate(-10 -10)">
    <path id="Línea_59" data-name="Línea 59" d="M0,21.5A1.5,1.5,0,0,1-1.5,20V0A1.5,1.5,0,0,1,0-1.5,1.5,1.5,0,0,1,1.5,0V20A1.5,1.5,0,0,1,0,21.5Z" transform="translate(21.5 11.5)" fill="#fff"/>
    <path id="Línea_60" data-name="Línea 60" d="M20,1.5H0A1.5,1.5,0,0,1-1.5,0,1.5,1.5,0,0,1,0-1.5H20A1.5,1.5,0,0,1,21.5,0,1.5,1.5,0,0,1,20,1.5Z" transform="translate(11.5 21.5)" fill="#fff"/>
  </g>
</svg>
