<svg xmlns="http://www.w3.org/2000/svg" width="40.982" height="40.982" viewBox="0 0 40.982 40.982">
  <g id="websit" transform="translate(0.5 0.5)">
    <path id="Trazado_50" data-name="Trazado 50" d="M-339.495,164.706V145.64a10.489,10.489,0,0,1,10.458-10.458h19.065a10.489,10.489,0,0,1,10.458,10.458v19.065a10.489,10.489,0,0,1-10.458,10.458h-19.065A10.489,10.489,0,0,1-339.495,164.706Z" transform="translate(339.495 -135.182)" fill="none" stroke="#fff" stroke-miterlimit="10" stroke-width="1"/>
    <g id="Grupo_25" data-name="Grupo 25" transform="translate(8.883 8.5)">
      <path id="Trazado_57" data-name="Trazado 57" d="M-296.548,166.936a11.251,11.251,0,0,0-11.245,11.231A11.251,11.251,0,0,0-296.548,189.4,11.251,11.251,0,0,0-285.3,178.167a11.252,11.252,0,0,0-11.246-11.231Zm7.4,5.3a9.43,9.43,0,0,1,2.1,5.785,23.46,23.46,0,0,0-4.395-.425,17.766,17.766,0,0,0-2.166.126c-.062-.151-.124-.3-.19-.453-.191-.449-.4-.894-.609-1.332a12.94,12.94,0,0,0,5.261-3.7Zm-7.4-3.543a9.467,9.467,0,0,1,6.26,2.356,10.843,10.843,0,0,1-4.907,3.368,51.364,51.364,0,0,0-3.495-5.48,9.487,9.487,0,0,1,2.142-.244Zm-4.081.921a61.376,61.376,0,0,1,3.476,5.412,35.948,35.948,0,0,1-8.587,1.144h-.093a9.527,9.527,0,0,1,5.2-6.556Zm-5.42,8.567q0-.117,0-.234h.249a35.563,35.563,0,0,0,9.489-1.349c.256.5.5,1.009.726,1.517-.106.031-.211.061-.316.1a15.193,15.193,0,0,0-7.76,6.257,9.44,9.44,0,0,1-2.393-6.287Zm9.5,9.488a9.463,9.463,0,0,1-5.794-1.975,13.126,13.126,0,0,1,7.445-5.89l.01,0a39.541,39.541,0,0,1,2.009,7.132,9.45,9.45,0,0,1-3.67.737Zm5.382-1.673a41.524,41.524,0,0,0-1.821-6.662,12.449,12.449,0,0,1,1.912-.144,14.115,14.115,0,0,1,3.9.545A9.5,9.5,0,0,1-291.166,186Z" transform="translate(307.793 -166.936)" fill="#fff"/>
    </g>
    <text id="www" transform="translate(1.144 24.5)" fill="#fff" font-size="14" font-family="Montserrat-Regular, Montserrat" opacity="0"><tspan x="0" y="0">www</tspan></text>
  </g>
</svg>
